<svg xmlns="http://www.w3.org/2000/svg" viewBox="0 0 800 450">
  <defs>
    <style>
      .cls-1{fill:#1f1c18}
      .cls-2{opacity:.8}
      .cls-3{fill:#fff}
      .cls-4{fill:#8e0e00}
    </style>
  </defs>
  <title>netflix</title>
  <rect class="cls-1" width="800" height="450" rx="40" ry="40"/>
  <g class="cls-2">
    <path class="cls-3" d="M90,70H350a20,20,0,0,1,20,20h0a20,20,0,0,1-20,20H90A20,20,0,0,1,70,90h0A20,20,0,0,1,90,70Z"/>
  </g>
  <rect class="cls-4" y="140" width="800" height="80"/>
  <path class="cls-3" d="M90,160H500a20,20,0,0,1,20,20h0a20,20,0,0,1-20,20H90a20,20,0,0,1-20-20h0A20,20,0,0,1,90,160Z"/>
  <path class="cls-3" d="M90,250H500a20,20,0,0,1,20,20h0a20,20,0,0,1-20,20H90a20,20,0,0,1-20-20h0A20,20,0,0,1,90,250Z"/>
  <g class="cls-2">
    <path class="cls-3" d="M90,340H500a20,20,0,0,1,20,20h0a20,20,0,0,1-20,20H90a20,20,0,0,1-20-20h0A20,20,0,0,1,90,340Z"/>
  </g>
  <path class="cls-4" d="M670,250h40a20,20,0,0,1,20,20h0a20,20,0,0,1-20,20H670a20,20,0,0,1-20-20h0A20,20,0,0,1,670,250Z"/>
  <g class="cls-2">
    <path class="cls-3" d="M90,430H500a20,20,0,0,1,20,20h0a20,20,0,0,1-20,20H90a20,20,0,0,1-20-20h0A20,20,0,0,1,90,430Z"/>
  </g>
</svg>
